<?xml version="1.0" encoding="utf-8"?>
<!-- Generator: Adobe Illustrator 22.1.0, SVG Export Plug-In . SVG Version: 6.00 Build 0)  -->
<svg version="1.1" baseProfile="tiny" id="Layer_1" xmlns="http://www.w3.org/2000/svg" xmlns:xlink="http://www.w3.org/1999/xlink"
	 x="0px" y="0px" viewBox="0 0 225 225" xml:space="preserve">
<g>
	<g>
		<path fill="#212121" d="M106.8,42.3h2.6c6.2,0.5,12.2,2.9,16.7,7.3c2.1,2.5,5.6,1.9,8.3,3c5-1.7,10.5-2.1,15.6-0.6
			c10.3,2.6,18.4,12.1,19.3,22.7c0.9,8.1-2.4,16.4-8.4,21.9c7.2,2.7,13.2,8.6,15.8,15.9c2.1,5.5,1.5,11.4,1.6,17.1
			c0,7.3-3,14.7-8.4,19.6c-5.3,5-12.7,7.4-19.9,7.1c0.6,5,1.3,10.1,1.7,15.1c0.4,2.4-1.7,4.2-3.8,4.9c-11.4,5.1-24.2,5.7-36.5,6.2
			h-7.5c-11-0.6-22.3-1.2-32.7-5.1c-1.8-0.8-3.8-1.4-5.3-2.7c-1.4-1.2-1.3-3.1-1.1-4.7c2.5-21.9,4.8-43.8,7.4-65.7
			c-2.6-1.5-5.7-1.2-8.4-2.5C53.9,98.4,47,88.6,46.7,78.3v-2.4c0.6-8.2,5-15.9,11.9-20.4c6.7-4.5,15.6-5.6,23.2-2.8
			c2.8-1.2,6.3-0.6,8.4-3.1C94.6,45.2,100.7,42.8,106.8,42.3z M104.8,51.4c-5.1,0.9-9.4,4.2-12,8.6c-3.8-0.5-7.7,0.4-11,2.3
			c-6.4-3.8-15.1-3-20.5,2.1c-4.9,4.4-7.1,11.6-5.1,18c2.2,8.1,10.8,13.9,19.2,12.4c1.6,2.6,3.7,5,6.4,6.5c0.1,5.3,0,10.6,0.1,15.9
			c0,3.5,4.7,5.5,7.3,3.1c2.2-1.9,1.5-5.1,1.5-7.6c6.6-0.1,12.8-4.1,15.8-10c2-1.7,4.5-2.8,6.1-4.9c4.7,5.4,12.8,7.5,19.4,4.8
			c3.8-1.4,6.8-4.4,9-7.8c5.5,1,11.4-1.3,15.2-5.4c3.9-4.2,5.6-10.3,4.2-15.8c-1.4-6.7-7.1-12.2-13.9-13.4
			c-4.1-0.9-8.4,0.1-12.1,2.1c-3.3-1.9-7.2-2.8-11-2.2C119.7,53.7,112.1,49.8,104.8,51.4z M144.2,104.6c1.6,14.3,3.1,28.7,4.8,43
			c7,0.8,14.5-2.4,18-8.6c3.3-5.2,2.3-11.6,2.5-17.4c0.1-6.6-3.8-13-9.7-15.9c-4.5-2.4-9.7-2-14.6-1.9
			C145,103.9,144.5,104.4,144.2,104.6z"/>
	</g>
</g>
<circle fill="none" stroke="#212121" stroke-width="4" stroke-miterlimit="10" cx="112.5" cy="112.5" r="107.8"/>
</svg>
