<?xml version="1.0" encoding="utf-8"?>
<!-- Generator: Adobe Illustrator 22.1.0, SVG Export Plug-In . SVG Version: 6.00 Build 0)  -->
<svg version="1.1" baseProfile="tiny" xmlns="http://www.w3.org/2000/svg" xmlns:xlink="http://www.w3.org/1999/xlink" x="0px"
	 y="0px" viewBox="0 0 320 500" xml:space="preserve">
<g id="Layer_2">
</g>
<g id="Layer_1">
	<g>
		<g>
			<path fill="#FFFFFF" d="M40.9,462.5c2.1,1.8,5.8,1.2,6.6-1.8c0.3-1.4-0.8-2.6-2.1-2.3c-0.5,0.1-0.9,0.3-1.3,0.5
				c-0.1,0.1-0.3,0.1-0.4,0.2c0,0-0.1,0-0.1,0c0,0-0.1,0-0.1,0c-0.4-0.1,0,0-0.4-0.2c-0.3-0.2-0.5-0.5-0.8-0.8
				c-1-1.2-1.9-3.1-1.9-4.6c-0.1-2.9,1.2-5.9,1.8-8.7c0.7-3,1-5.9,0.6-9c-0.3-1.9-2.9-1.1-2.7,0.7c0.5,3.6-0.5,7-1.6,10.3
				c-0.9,2.9-1.9,6-1.3,9.1C37.7,458.4,39,460.8,40.9,462.5z"/>
			<path fill="#FFFFFF" d="M56.7,461.1c0.1-0.3,0.1-0.7,0.2-1c0-0.1,0-0.2,0.1-0.3c0.8,0.1,1.6-0.2,2-1c0.8,1,2.5,1,3-0.6
				c1.4-4.4,0.5-9,0.5-13.5c0-2.3-2.8-2.6-3.6-0.6c-0.1,0.4-0.3,0.7-0.4,1c-0.1,0-0.1-0.1-0.2-0.1c0-1.3,0-2.6-0.1-3.8
				c-0.1-1.4-1.7-2.4-2.7-1.6c-0.7-1.8-3.7-2.2-4.3,0c-0.6,0-1.2,0.2-1.6,1c-1.4,2.6-1.9,5.7-2.2,8.7c-0.3,3.1-0.4,6.4,0.4,9.4
				c0.3,1.2,1.3,2.1,2.5,2.1c0.8,0,1.4-0.3,1.8-0.7c0,0.1,0,0.1,0,0.2C51.4,463.2,56.1,464,56.7,461.1z"/>
			<path fill="#FFFFFF" d="M64,449.8c0,1.6,0,3.2,0,4.8c0,1.8,0,3.9,0.7,5.5c0.7,1.6,3.4,1.4,3.7-0.4c0.3-1.6,0-3.3-0.1-5
				c0-1.6,0-3.2,0.1-4.8C68.5,446.9,64.1,446.8,64,449.8z"/>
			<path fill="#FFFFFF" d="M73,454.5c0-0.2-0.1-0.3-0.1-0.5c0-0.2,0-0.8,0-1.1c0-1.9-2.6-1.9-2.7-0.1c-0.1,1.1-0.2,2.4,0.5,3.4
				c1,1.6,3.2,0.3,2.4-1.4C73.1,454.9,73,454.5,73,454.5z"/>
			<path fill="#FFFFFF" d="M253.2,200.2c0.8-3.2-1.2-6.4-1.3-9.6c-0.1-2.1-3.1-2.2-3.2-0.1c0,1.6,0.2,3.1,0.5,4.6
				c0.3,1.6,0.4,3.4,1,5C250.7,201.6,252.8,201.9,253.2,200.2z"/>
			<path fill="#FFFFFF" d="M250.7,212.4c1.5,0,2.9-0.1,4.4-0.1c6.5-0.2,13,0.4,19.5-0.1c2.9-0.2,5.5-0.6,8.3-0.5
				c1,0.1,2,0.1,2.9,0.1c0.3,1.1,0.2,1.7,0.2,3.1c0,2.4-0.1,4.7-0.1,7.1c0,0.2,0,0.4,0,0.6c-0.1-0.6,0.1,1.6,0.1,1c0,1,0,2.1,0,3.1
				c0,2.4,0,4.7-0.1,7.1c-0.1,4.6-0.4,9.1-0.6,13.7c-0.5,9.1-1,18.2-1,27.3c0,6.2,0.4,12.4,0.6,18.5c0.3,6.3,0.5,12.6,0.4,18.9
				c0,3.1-0.2,6.3-0.4,9.4c-0.1,1.5-0.3,2.9-0.4,4.4c-0.1,0.7-0.2,1.5-0.3,2.2c0,0,0,0.1,0,0.1c0,0.1,0,0.1,0,0.2
				c-0.1,0.5-0.2,1-0.2,1.4c-0.5,2.9-1.2,5.9-2.1,8.7c-0.4,1.3-0.9,2.7-1.4,4c-0.1,0.3-0.3,0.7-0.4,1c0,0.1-0.1,0.3-0.2,0.5
				c-0.3,0.7-0.6,1.4-1,2.1c-1.3,2.6-2.7,5-4.4,7.2c-0.1,0.1-0.4,0.5-0.4,0.6c-0.2,0.3-0.5,0.6-0.7,0.8c-0.5,0.6-0.9,1.1-1.4,1.6
				c-1.1,1.2-2.2,2.3-3.4,3.3c-1.3,1.1-2.1,1.8-3.1,2.5c-0.8,0.6-1.6,1.1-2.5,1.6c-1.3,3.8-3.1,7.4-5.2,10.8
				c5.4-2,10.7-4.6,15.2-8.3c9.6-7.7,15.4-19.3,18-31.6c2.6-12.4,2.5-25.3,2-38c-0.2-6.1-0.6-12.2-0.7-18.4
				c-0.2-8.7,0.1-17.3,0.5-25.9c0.2-5.3,0.4-10.6,0.4-15.9c0-2.7,0-5.5-0.1-8.2c0-1.3-0.1-2.5-0.1-3.8c0-0.9,0-1.8-0.2-2.6
				c0-0.1,0-0.2,0-0.3c0.1,0.9,0.1,0.8,0-0.4c0-0.2-0.1-0.4-0.1-0.6c0-0.1,0-0.1,0-0.2c0,0,0-0.1,0-0.1c-0.1-0.9-0.2-1.8-0.3-2.6
				c-0.2-1.6-0.4-3.1-0.8-4.6c-0.2-0.9-0.5-1.7-0.9-2.5c0.1,0,0.1-0.1,0.2-0.1c2.2-1.1,1.2-4.6-1.1-4.7c-2.3-0.1-4.7-0.6-7-1
				c-3.1-0.6-6.4-0.4-9.5-0.5c-6.8-0.1-13.7-0.3-20.5-0.1c-3.3,0.1-6.6,0.2-9.9,0.3c-0.4,0-0.8,0-1.2,0
				C245,207,248,209.5,250.7,212.4z"/>
			<path fill="#FFFFFF" d="M168.4,471c0.1,0-0.4,0.1-0.6,0.1c-0.3,0-0.7,0-1,0c-0.8,0-1.6,0.7-1.6,1.6c0,0.9,0.7,1.7,1.5,1.7
				c1.1,0,2.4,0,3-1.1c0.5-1-0.1-2.1-1.1-2.2C168.6,471,168.5,471,168.4,471z"/>
			<path fill="#FFFFFF" d="M38.3,433c-0.2-1.7-0.9-3.2-2.6-3.8c-1.4-0.4-2.6,0-3.5,0.9c-0.1,0-0.2,0-0.3,0c-0.2-1.8-2.8-3-3.7-1
				c-0.2,0.5-0.4,1-0.6,1.6c-0.8,0.4-1.6,1.1-2,2.3c-2.1,6.1-2.7,12.7-3.6,19.1c-0.4,3.1,3.3,4.5,5.4,3.1c0.6,0,1.2-0.1,1.7-0.4
				c0.6,0.4,1.2,0.6,1.8,0.6c1.5,0,2.7-0.9,3.3-2.1c1-0.4,1.8-1.3,2.1-2.4C38.4,445.2,38.9,439,38.3,433z"/>
			<path fill="#FFFFFF" d="M227.5,447.8c1.6-2.4,1-6,0.9-8.8c-0.2-3.3-0.4-6.5-0.8-9.8c-0.2-2.1-3.5-1.7-3.4,0.4
				c0.1,3.1,0.3,6.2,0.4,9.3c0.1,2.8-0.4,6.4,1.1,8.8C226.1,448.5,227,448.5,227.5,447.8z"/>
			<path fill="#FFFFFF" d="M244.3,202.5c0.4-1.6-0.2-3.2-0.6-4.7c-0.4-1.8-0.9-3.6-1.5-5.4c-0.4-1.2-2.3-0.8-1.9,0.5
				c0.5,1.6,0.9,3.2,1.2,4.9c0.3,1.7,0.5,3.8,1.8,4.9C243.6,203,244.2,203,244.3,202.5z"/>
			<path fill="#FFFFFF" d="M40.2,101.4c-2.6,1-4.3,4.2-5.5,6.7c-1.3,2.8-2.1,5.7-1.9,8.8c0.1,1.3,1.7,1.3,1.9,0
				c0.4-2.7,1.4-5.3,2.7-7.7c1.2-2.2,3.3-4.1,4-6.6C41.6,102.1,40.9,101.1,40.2,101.4z"/>
			<path fill="#FFFFFF" d="M50.4,114.8c0.2-1.6,1-3,1.7-4.3c0.8-1.4,1.8-2.6,1.9-4.3c0.1-0.6-0.5-1.3-1.2-1.3
				c-2,0.1-3.2,1.7-4.4,3.3c-1.3,1.7-2.2,3.8-2.5,5.9C45.5,117.5,50,118.3,50.4,114.8z"/>
			<path fill="#FFFFFF" d="M80.4,54.6c4.1,0.3,8.3,1.4,12.4,0.7c0.9-0.1,0.7-1.3,0-1.6c-4.1-1.9-8.9-2.3-13.4-2.5
				c-4.2-0.2-8.3,0.4-12.3,1.6c-2.6,0.8-5.2,1.7-7.4,3.3c-2.2,1.5-4.2,4.2-3.5,7.1c0.3,1,1.8,1.2,2,0c0.2-1.2,0.4-2.2,1.1-3.2
				c0.6-1,1.7-1.6,2.6-2.2c2-1.2,4.3-1.8,6.5-2.4C72.5,54.5,76.4,54.3,80.4,54.6z"/>
			<path fill="#FFFFFF" d="M313.7,217.6c-0.1-0.9-0.2-1.8-0.3-2.8c-0.1-0.6-0.1-1.1-0.2-1.7c0,0,0-0.1,0-0.1c0,0,0-0.1,0-0.3
				c-0.1-1.3-0.1-2.6-0.2-4c-0.1-3.2-0.3-6.5-0.8-9.7c-0.6-4.6-1.9-9.1-4.3-12.9c0.1-1,0-1.9-0.2-2.8c-0.3-1.6-1.1-3.1-2.3-4.2
				c-2.2-2-4.9-2.6-7.7-2.6c-2.7,0-5.4,0.2-8.2,0.2c-4.4-0.1-8.8,0-13.1,0.1c-4.4,0.1-8.8,0.2-13.1,0.2c-4.1,0-8.3-0.1-12.4,0
				c-3,0.1-6,0.6-9,1c-0.6,0.1-1.2,0.2-1.8,0.2c-0.1,0-0.6,0.1-0.7,0.1c-0.4,0-0.7,0.1-1.1,0.1c-1.6,0.1-3.1,0.2-4.7,0.2
				c-0.7,0-1.4-0.1-2-0.1c-0.2,0-0.4,0-0.6,0c0.1-3.2,0.3-6.4,0.4-9.5c0.1-2.2,0-4.5-0.2-6.7c-0.1-1.1-0.1-2.2-0.2-3.3
				c0-0.5,0-1.1-0.1-1.6c1.6-0.8,3-1.9,4.3-3c3.1-2.8,5.2-6.7,5.5-11c0.3-4-1.6-7.8-3-11.4c0,0-0.3-0.7-0.3-0.8
				c-0.1-0.4-0.3-0.7-0.4-1.1c-0.3-1.2-0.3-1.2-0.3-2.2c0-0.8,0.1-1.7,0.2-2.5c0,0.4,0.1-0.8,0.1-0.8c0.1-0.6,0.2-1.2,0.4-1.8
				c0.9-4,1.5-7.8,0.5-11.9c-1.6-6.4-6.4-11.5-11.5-15.1c-2.4-1.7-4.7-3.4-7.2-5c-1.1-0.7-2.1-1.3-3.2-1.9c-0.8-0.5-1.7-0.8-2.5-1.2
				c-0.1,0-0.2-0.1-0.3-0.1c-0.1,0-0.7-0.3-0.9-0.4c-0.6-0.3-1.1-0.7-1.7-1c-0.2-0.1-1-0.8-1.2-0.9c-0.2-0.2-0.3-0.4-0.5-0.5
				c-0.1-0.1-0.2-0.2-0.2-0.3c0,0,0-0.1-0.1-0.1c0-0.1,0-0.1,0-0.2c0-0.1,0-0.3,0-0.4c0.1-0.4,0.2-0.7,0.3-1.1
				c0-0.1,0.2-0.6,0.3-0.8c0.1-0.2,0.2-0.5,0.3-0.7c0.4-0.9,0.9-1.8,1.4-2.7c1.7-3.1,3.9-5.8,5.8-8.8c1.7-2.5,3.3-5.3,3.9-8.3
				c0.3-0.4,0.6-0.8,0.8-1.3c1.9-3.5,1.5-7.7-0.4-11.2c-3.2-6-9.1-9.6-13.7-14.3c-2.4-2.4-4.4-5.3-6.6-7.9c-2.2-2.7-4.4-5.3-6.8-7.7
				c-5.2-5.2-11.4-8.9-18.4-10.5c-12.5-2.9-28.3-0.7-36.7,10.5c-1.1,1.4-1.8,3-2.3,4.8c-0.5,1.8-0.9,3.6-1.1,5.5
				c-0.2,1.4,0.1,3.2-0.1,4.5c-0.2,1.1-1.1,1.5-1.9,2c-0.1,0.1-0.2,0.1-0.2,0.1c0,0-0.1,0-0.1,0c-0.3,0.1-0.6,0.2-0.8,0.3
				c-0.6,0.2-1.2,0.3-1.8,0.4c-0.3,0.1-0.6,0.1-1,0.2c-0.1,0-0.2,0-0.3,0c0.7-0.1,0.5-0.1-0.7,0c-0.8,0.2-1.6,0.4-2.4,0.5
				c-0.7,0.1-1.4,0.2-2.1,0.3c-0.1,0-0.4,0-0.6,0.1c-0.3,0-0.5,0.1-0.8,0.1c-1.5,0.2-3,0.2-4.5,0.3c-6.8,0.6-13.7,0.7-20.5,0.3
				c-8.7-0.5-17.5-1.2-26.1,0.2c-10.8,1.8-22.7,6-29.7,15.3c-3.3,4.3-5,9.9-4.2,15.4c0.2,1.1,0.5,2.2,0.9,3.3
				c0.2,0.5,0.3,0.9,0.5,1.4c-0.5-1.1,0.3,0.6,0.4,1c0.3,0.7,0.6,1.3,0.9,2c0.6,1.2,1.3,2.4,1.8,3.6c0.1,0.2,0.2,0.5,0.3,0.7
				c0,0.1,0.1,0.1,0.1,0.2c0,0.1,0,0.1,0.1,0.3c0.2,0.7,0.4,1.3,0.6,2c0,0.2,0.2,1.4,0.2,1.2c0,0.5,0,0.9,0,1.4c0,0,0,0.1,0,0.1
				c-0.1,0.3-0.1,0.5-0.2,0.8c0,0.1,0,0.1,0,0.1c0,0-0.1,0.1-0.1,0.2c-0.1,0.2-0.3,0.5-0.4,0.7c0,0-0.1,0.1-0.2,0.3
				c-0.3,0.3-0.6,0.6-0.9,0.9c-0.6,0.6-1.2,1.1-1.8,1.6c-1.1,0.9-1.8,1.4-2.9,2.3c-2.2,1.7-4.3,3.3-6.2,5.3c-1.7,1.9-3,4-4.1,6.3
				c-0.2,0-0.5,0-0.7,0.1c-7.2,1.5-14.8,3.7-19.2,10.5c-3.2,4.9-3,11.2-1.7,16.8c1.4,6,4.2,11.7,6.7,17.2c3.2,7.1,6.3,14,7.3,21.8
				c0.5,3.8,0.3,7.7,0.1,11.6c-0.1,1.8-0.1,3.8-0.3,5.6c-0.3,2-0.4,4-0.4,6c-0.1,8.5,2.8,17.1,7.9,23.6c0.1,0.2,0.3,0.3,0.5,0.5
				c2-2.7,4.1-5.3,6.6-7.6c-0.1-0.1-0.2-0.2-0.2-0.3c0.1,0.2,0.2,0.2,0.2,0.3c0,0,0,0,0,0c-0.1-0.2-0.3-0.5-0.4-0.6
				c-0.3-0.4-0.5-0.8-0.7-1.2c-0.5-0.8-0.9-1.6-1.3-2.5c-0.2-0.4-0.4-0.8-0.6-1.3c0-0.1-0.1-0.2-0.1-0.3c-0.1-0.2-0.1-0.4-0.2-0.6
				c-1.2-3.6-1.8-7.4-2.3-11.2c-0.3-1.8-0.6-3.6-0.8-5.4c0-0.1,0-0.2,0-0.2c0-0.1,0-0.2,0-0.5c0-0.5,0-0.9,0-1.4
				c0-1.1-0.1-2.2-0.1-3.3c-0.1-4.2-0.2-8.4-1.1-12.5c-0.9-3.9-2.3-7.6-3.7-11.3c-2.5-6.6-6.1-13.1-8.4-19.6c-1-2.7-1.8-5.5-2.3-8.3
				c-0.1-0.6-0.2-1.1-0.3-1.7c0,0-0.1-0.6-0.1-0.6c0-0.3,0-0.6,0-1c0-0.6,0-1.3,0-1.9c0-0.3,0-0.6,0.1-0.9c0-0.1,0-0.2,0-0.2
				c0-0.1,0-0.2,0.1-0.3c0.1-0.6,0.3-1.2,0.4-1.7c0-0.2,0.1-0.3,0.2-0.5c0,0.1,0.2-0.4,0.2-0.5c0.3-0.5,0.6-1,0.9-1.5
				c0,0,0-0.1,0.1-0.1c0,0,0,0,0.1-0.1c0.3-0.3,0.5-0.6,0.8-0.9c0.2-0.2,0.5-0.4,0.7-0.6c0,0,0,0,0.1-0.1c0,0,0.1-0.1,0.2-0.1
				c0.6-0.4,1.2-0.8,1.8-1.1c1.7-0.9,2.6-1.1,4.8-1.8c2.2-0.6,4.5-1.2,6.7-1.8c1.3-0.3,2.3-1.3,2.8-2.6c0.6-0.4,1.1-1.1,1.4-1.9
				c1.1-3,2.7-5,5-7.1c1.2-1.1,1.8-1.5,3-2.4c1.5-1.1,2.9-2.2,4.4-3.4c2.6-2.1,5-4.6,5.7-8.1c0.6-3.2-0.1-6.4-1.1-9.5
				c-0.1-0.3-0.2-0.7-0.4-1c-0.1-0.3-0.5-1.9-0.3-1.1c-0.2-0.7-0.4-1.4-0.6-2.1c-0.4-1.5-0.9-3-1.3-4.6c-0.1-0.3-0.1-0.7-0.2-1
				c0-0.1,0-0.2,0-0.4c0-0.6,0-1.2,0-1.8c0-0.1,0-0.4,0.1-0.6c0-0.2,0.1-0.3,0.1-0.5c0.2-0.7,0.4-1.4,0.6-2.1c0-0.1,0.1-0.2,0.1-0.4
				c0.1-0.2,0.2-0.3,0.2-0.5c0.3-0.6,0.6-1.1,0.9-1.6c0.2-0.3,0.3-0.5,0.5-0.7c0,0,0,0,0,0c0.5-0.6,0.9-1.1,1.5-1.6
				c0.4-0.4,0.9-0.9,1.4-1.3c0.1-0.1,0.2-0.2,0.4-0.3c0.1-0.1,0.3-0.2,0.4-0.3c1.1-0.8,2.3-1.6,3.5-2.3c1.1-0.7,2.3-1.3,3.5-1.8
				c0.3-0.1,0.6-0.3,0.9-0.4c0,0,0,0,0,0c0,0,0,0,0,0c0.7-0.3,1.4-0.6,2.1-0.8c2.5-0.9,5-1.6,7.5-2.2c1.1-0.3,2.2-0.5,3.4-0.7
				c0.3,0,0.5-0.1,0.8-0.1c0.1,0,0.2,0,0.3,0c0.1,0,0.2,0,0.5-0.1c1.2-0.1,2.4-0.2,3.6-0.3c4.3-0.2,8.5,0,12.8,0.2
				c4.2,0.2,8.4,0.5,12.7,0.5c3.8,0,7.4-0.3,11.1-0.7c2.7-0.3,5.4-0.7,8.1-1.3c3-0.6,6.2-1.3,9-2.9c1.4-0.8,2.7-1.8,4-2.8
				c-0.5,0.4,0.5-0.4,0.7-0.5c0.3-0.2,0.6-0.5,0.8-0.7c0.7-0.7,1.3-1.5,1.8-2.3c0.1-0.1,0.1-0.2,0.1-0.3c0.2,1.8,0.5,3.6,1.2,5.4
				c0.8,2,1.9,4.8,4.1,5.5c0.6,0.2,1.3-0.3,1.3-1c0.1-2.1-1.5-4-2.3-5.8c-0.9-2-2.1-4.1-2.5-6.2c-0.1-0.6-0.6-0.9-1.1-0.8
				c0.1-0.8,0.1-1.6,0-2.4c0-1.8,0.2-3.6,0.7-5.3c0.9-1,1.7-2.1,2.7-3c1.1-1,1.8-1.5,3.3-2.4c1.1-0.7,2.3-1.3,3.5-1.9
				c0,0,0.6-0.2,0.7-0.3c0.3-0.1,0.7-0.2,1-0.4c0.8-0.3,1.6-0.5,2.5-0.7c1.3-0.3,2.6-0.6,4-0.8c0.1,0,0.6-0.1,0.7-0.1
				c0.4,0,0.7-0.1,1.1-0.1c0.9-0.1,1.7-0.1,2.6-0.1c1.5,0,3,0.1,4.5,0.2c0.4,0,0.7,0.1,1.1,0.1c0.1,0,0.4,0.1,0.6,0.1
				c0.7,0.1,1.4,0.3,2.1,0.4c1.4,0.3,2.7,0.7,4,1.2c0.7,0.3,1.4,0.5,2.1,0.8c0.1,0,0.2,0.1,0.3,0.1c0,0,0.1,0,0.1,0.1
				c0.5,0.2,1,0.5,1.5,0.8c1.4,0.8,2.7,1.7,4,2.8c0.3,0.2,0.6,0.5,1,0.7c0.1,0,0.2,0.2,0.4,0.3c0.6,0.6,1.3,1.2,1.9,1.8
				c4.9,4.8,8.7,10.6,13.7,15.3c2.3,2.2,4.8,3.9,7.4,5.7c1.2,0.8,2.4,1.7,3.5,2.5c0.1,0.1,0.2,0.2,0.4,0.3c-0.1-0.1,0.9,0.8,1.1,0.9
				c0,0,0.4,0.3,0.5,0.4c0.2,0.2,0.4,0.4,0.7,0.6c0.4,0.4,0.8,0.9,1.2,1.3c0.2,0.3,0.4,0.6,0.7,0.8c0.1,0.1,0.1,0.2,0.2,0.2
				c0,0.1,0.1,0.2,0.2,0.3c0.6,0.9,0.9,1.9,0.7,3.1c0,0,0,0.1,0,0.1c-2.2,2.1-4.1,4.3-6.2,6.5c-2.4,2.5-4.9,5-7.1,7.6
				c-2.8,3.3-5.4,6.9-5.5,11.6c-0.1,4.3,2.2,7.9,5.3,10.4c4.5,3.7,10.5,4.1,15.7,6.1c-0.3-0.1,0.5,0.3,0.6,0.3
				c0.3,0.2,0.6,0.3,0.9,0.5c0.6,0.4,1.2,0.7,1.8,1.1c0.6,0.4,1.1,0.9,1.7,1.3c0.1,0,0.1,0.1,0.1,0.1c0,0,0.1,0.1,0.2,0.2
				c0.4,0.3,0.7,0.6,1,1c0.5,0.5,1,1,1.4,1.5c0.2,0.3,0.5,0.5,0.7,0.8c0,0,0.3,0.4,0.4,0.5c0.3,0.5,0.6,1,0.9,1.5
				c0.2,0.3,0.3,0.6,0.5,0.9c0.1,0.1,0.3,0.8,0.4,0.9c0.2,0.5,0.3,1.1,0.4,1.7c0,0.2,0.1,0.4,0.1,0.6c0-0.1,0.1,0.6,0.1,0.7
				c0.1,1.9-0.2,3.2-0.5,4.6c-0.9,4.3-1.8,8.3-0.9,12.6c0.4,2,1.3,3.8,2.2,5.6c0.9,1.8,1.2,2.6,1.7,4.6c0.5,2.5-0.9,4.7-2.9,6.2
				c-0.7,0.5-1.4,0.9-2.1,1.3c-0.1,0-0.6,0.3-0.7,0.3c-0.3,0.1-0.6,0.2-0.8,0.3c-0.1,0-0.6,0.1-0.7,0.1c-0.3,0-0.5,0-0.8,0
				c0,0,0,0,0,0c-0.1,0-0.2-0.1-0.3-0.1c-0.3-0.1-0.6-0.2-0.9-0.3c-0.1,0-0.4-0.2-0.6-0.3c-0.1-0.1-0.3-0.2-0.4-0.3
				c-0.4-0.4-0.8-0.8-1.1-1.2c-1.1-1.3-2.4-2.5-3.7-3.5c-2.4-1.8-5.4-1.8-8.2-1.4c-0.1,0-0.1,0-0.2,0c-8.5-2.3-16.7-3.7-25.6-4.3
				c-8.6-0.5-17.3,0.8-25.9,1.6c-4.3,0.4-8.5,0.9-12.8,1.2c-4.2,0.3-8.4,0.2-12.6,0.1c-3.4-0.1-6.8-0.4-10.1-0.7
				c-0.1,0-0.2-0.1-0.2-0.1c-1.4-0.7-2.8-1.5-4.2-2.2c-2.8-1.4-5.5-2.8-8.4-4c-1-0.4-1.5,1.1-0.7,1.7c1.7,1.2,3.3,2.5,5,3.7
				c-2.3-0.2-4.6-0.2-6.8,0.3c-1.9,0.4-3.3,2-3.4,3.9c-0.5,0.4-0.8,0.7-1.4,1.1c-1.6,1.3-3,2.8-4.6,4.2c-3,2.6-5.7,5.5-8.2,8.7
				c-1.3,1.7-2.3,3.6-3.4,5.4c-1.1,1.7-2,3.5-3,5.3c-2,3.6-3.5,7.3-5.1,11c-0.9,2-1.9,4.1-2.6,6.2c-0.7,2-1.3,4.1-2.2,6
				c-0.6,1.3-1.2,2.5-1.9,3.7c0.2,0,0.3,0,0.5,0h139.5c1.8,0,3.6,0.1,5.4,0.3c0.3-11.5,0.6-19,0.6-19c0.3-1.7-0.2-3.1-1.3-4.1
				c1.6,0.2,3.3,0.4,4.9,0.5c0.5,0,1.1,0.1,1.7,0.1c-0.3,3.2-0.5,6.4-0.7,9.7c-0.3,4.5-0.4,9-0.5,13.5c6.3,1.2,12.2,3.5,17.6,6.6
				c0.6-2.4,0.8-5,0.8-7.4c0-2.5-0.4-5.1-1.5-7.4c-0.1-0.3-0.3-0.5-0.4-0.8c1.1-0.1,2.1-0.2,3.1-0.3c2.9-0.3,5.7-0.7,8.6-0.9
				c3.7-0.2,7.5,0.1,11.2,0c8.8-0.1,17.5-0.4,26.3-0.4c3.2,0,6.3,0.1,9.4-0.1c1-0.1,2.1-0.1,3.1,0c0,0,0,0,0,0
				c0.1,0,0.3,0.1,0.4,0.1c0.1,0,0.1,0,0.1,0c0,0,0.1,0,0.1,0.1c0,0,0.1,0.1,0.1,0.1c0.8,1.4,1,2.1,1.4,3.5c0.5,1.6,0.7,3.4,0.9,5
				c0.1,0.8,0.2,1.6,0.4,2.4c0.1,0.4,0.1,0.8,0.2,1.2c0,0,0,0,0,0.1c0,0.1,0,0.2,0,0.3c0.2,1.8,0.2,3.5,0.3,5.3
				c0.2,3.1,0.2,6.2,0.3,9.3c0.1,2.2,0.4,4.5,0.6,6.7c0.2,2.4,0.4,4.8,0.6,7.2c0.7,9.2,1.1,18.3,1.1,27.5c0,9.1-0.7,18.2-1.3,27.3
				c-0.7,9-1.2,18.1-1.4,27.1c-0.3,8.5,0.2,17-0.5,25.4c-0.1,0.8-0.2,1.7-0.3,2.5c-0.1,0.4-0.1,0.8-0.2,1.3c0,0.1,0,0.3-0.1,0.4
				c-0.3,1.7-0.6,3.4-1,5.1c-0.8,3.3-1.8,6.5-3,9.7c-0.1,0.4-0.3,0.8-0.4,1.1c0,0.1-0.1,0.3-0.2,0.5c-0.3,0.6-0.6,1.3-0.9,1.9
				c-0.7,1.6-1.5,3.1-2.4,4.6c-0.8,1.4-1.6,2.8-2.5,4.1c-0.4,0.7-0.9,1.3-1.4,2c-0.2,0.3-0.5,0.7-0.7,1c-0.1,0.1-0.5,0.6-0.6,0.8
				c-3.4,4.4-7.3,8.4-11.5,12c-1.1,1-2.3,1.9-3.5,2.9c0,0-0.1,0.1-0.1,0.1c-0.3,0.3-0.7,0.5-1,0.8c-0.6,0.5-1.2,0.9-1.8,1.4
				c-2.5,1.8-5,3.5-7.6,5.1c-2.6,1.6-5.3,3.1-8,4.6c-1.4,0.7-2.8,1.4-4.1,2c-0.6,0.3-1.3,0.6-1.9,0.8c-0.1,0-0.1,0.1-0.3,0.1
				c-0.4,0.2-0.8,0.3-1.3,0.5c-2.7,1-5.4,1.9-8.1,2.6c0.5-3.1,0.3-6.4-0.3-9.4c-5.3,3.2-11.2,5.7-17.4,7c0.6,5.4,2.3,10.8,4.2,15.5
				c0.7,1.8,1.6,3.5,2.5,5.2c0.5,0.9,0.9,1.8,1.3,2.7c0.2,0.4,0.4,0.9,0.6,1.3c0,0.1,0.1,0.2,0.1,0.3c0.1,0.2,0.1,0.4,0.2,0.6
				c0.6,1.7,1,3.4,1.4,5.2c0.2,0.9,0.3,1.8,0.4,2.6c0,0.1,0.1,0.6,0.1,0.8c0,0.5,0.1,0.9,0.1,1.4c0.3,4.2,0,8.5-0.1,12.7
				c0,2.7,0,5.3,0,8c-0.4,0.2-0.8,0.3-1.2,0.5c-1.9,0.8-3.7,1.4-5.7,1.8c-3.7,0.8-7.1,2.6-10.9,2.8c-4.3,0.2-8.5,1.3-12.7,2.3
				c-2.5,0.6-5,1.1-7.4,1.9c-2.3,0.8-4.7,1.9-7.2,1.8c-1.6,0-2.2,2.7-0.5,3.1c3.5,0.8,6.8-0.5,10.2-1.3c1.8-0.4,3.6-0.6,5.4-1
				c2.2-0.5,4.4-1,6.6-1.5c2-0.4,4-0.6,6-0.8c2-0.2,3.9-0.8,5.8-1.3c1.7-0.5,3.5-1.1,5.3-1.5c2-0.5,3.9-0.9,5.8-1.7
				c0.2-0.1,0.4-0.2,0.6-0.2c0,0.1,0,0.1,0,0.2c0,1.6,0,3.1,0.1,4.7c0,0.4,0,0.7,0.1,1.1c-0.4,0.2-0.8,0.4-1.1,0.6
				c-0.3,0.2-0.7,0.3-1,0.5c0.1-0.1-0.9,0.4-1.1,0.4c-1.1,0.4-2.3,0.7-3.4,1c-3.8,1-7.7,1.2-11.5,2c-8.5,1.7-16.9,3.5-25.4,5.2
				c-4.2,0.9-8.5,1.7-12.8,2.4c-2,0.4-4.1,0.7-6.2,1c-1,0.2-2.1,0.3-3.1,0.4c-0.5,0.1-1,0.1-1.5,0.2c-0.3,0-0.6,0.1-0.8,0.1
				c-0.1,0-0.2,0-0.5,0c-17.2,1.5-34.5,2.6-51.7,0.9c-8.6-0.9-17.2-1.4-25.9-1.6c-8.7-0.2-17.3-0.5-25.9-1.5
				c-4.3-0.5-8.7-1.2-13-1.7c-2-0.2-4-0.4-6-0.7c-1-0.1-1.9-0.2-2.9-0.4c-0.1,0-0.8-0.1-1-0.1c-0.5-0.1-1-0.2-1.6-0.3
				c-2-0.4-3.9-0.9-5.8-1.5c-0.9-0.3-1.7-0.6-2.6-1c-0.4-0.2-0.8-0.3-1.2-0.5c0,0-0.1,0-0.2-0.1c-0.3-0.2-0.6-0.3-0.9-0.5
				c-0.8-0.4-1.6-0.9-2.3-1.4c-0.4-0.3-0.7-0.5-1.1-0.8c-0.1-0.1-0.2-0.2-0.4-0.3c0.2,0.2-0.4-0.4-0.5-0.4c-0.7-0.6-1.3-1.3-1.9-2
				c-0.3-0.4-0.6-0.7-0.9-1.1c-0.2-0.2-0.3-0.4-0.4-0.5c0,0-0.7-0.9-0.3-0.4c-0.1-0.2-0.3-0.4-0.4-0.5c0.1-0.5,0.1-1.1,0.2-1.6
				c0.2-1,0.3-2,0.4-3c0.3,0.2,0.6,0.3,0.8,0.5c0.2,0.2,0.4,0.3,0.6,0.5c0.4,0.4,0.9,0.6,1.5,0.7c1.1,0.6,2.2,1.2,3.3,1.7
				c3.5,1.6,7,3,10.6,4.2c7.2,2.4,14.6,4.1,22.1,5.2c15.1,2.4,30.5,2.4,45.7,2.6c7.8,0.1,15.6,0.4,23.3,0.8
				c4.3,0.2,8.6,0.5,12.9,0.5c4,0,8.7,0.4,12.5-1.4c0.8-0.4,0.6-1.8-0.2-2c-2-0.5-4-0.4-6-0.5c-2.2,0-4.5-0.1-6.7-0.3
				c-4.3-0.3-8.6-0.8-12.9-1c-7.7-0.4-15.5-0.1-23.3-0.2c-15.3-0.1-30.6-0.3-45.7-2.4c-7-1-14-2.5-20.8-4.6
				c-3.5-1.1-6.9-2.4-10.3-3.9c-1.1-0.5-2.2-1-3.3-1.5c-0.2-0.3-0.4-0.6-0.6-0.8c-0.6-0.6-0.9-1.4-1.3-2.1c-0.7-1.6-0.8-3.6-1.7-5.1
				c0.2-3.1,0.4-6.3,0.7-9.4c0.2-2.2,0.5-4.4,0.8-6.5c0.1-0.5,0.1-1.1,0.2-1.6c0,0.1,0.2-1.7,0.1-0.9c0.1-0.7,0.2-1.4,0.3-2.1
				c-0.1,1.1,0.1-0.7,0.2-0.9c0.3-1.6,0.8-3.3,1.4-4.8c0.1-0.4,0.3-0.8,0.4-1.1c0-0.1,0.2-0.5,0.3-0.7c0.3-0.8,0.7-1.5,1.1-2.3
				c3.1-6.3,7.1-12,9.7-18.6c0.4-1,0.7-2.1,1.1-3.1c0.6-0.1,1.2-0.4,1.7-0.9c0.9-0.9,1.6-1.8,2.1-3c0.4-0.8,0.7-1.7,0.9-2.6
				c0.1-0.5,0.2-1,0.2-1.5c-3.6-2.5-6.9-5.5-9.8-8.8c-0.8,4-1.9,7.8-2.9,11.7c-0.4,1.5-0.9,3-1.5,4.4c-0.1,0.2-0.3,0.6-0.3,0.7
				c-0.2,0.4-0.3,0.7-0.5,1.1c-0.4,0.8-0.8,1.7-1.3,2.5c-1.5,3-3.3,5.9-4.9,8.8c-1.8,3.2-3.4,6.4-4.7,9.9c-1.4,3.7-2.1,7.6-2.4,11.5
				c-0.4,4.6-0.3,9.1-0.5,13.7c-0.1,4.6-0.3,9.2-0.1,13.7c0,0.9,0.1,1.7,0.2,2.6c0.1,0.7,0,1.4,0.1,2.1c0.1,0.5,0.3,0.9,0.4,1.3
				c-0.1,0.7,0,1.5,0.3,2.2c2.8,6,8.3,9.8,14,12.2c5.7,2.5,11.9,3.5,17.9,4.4c1.4,0.2,2.8,0.4,4.2,0.7c0.7,0.1,1.4,0.2,2.1,0.3
				c0,0,0,0,0,0c0.1,0,0.1,0,0.2,0c0.4,0.1,0.9,0.1,1.3,0.2c4.1,0.7,8.2,1.5,12.3,2.1c8.6,1.1,17.3,1.4,26,1.8
				c4.3,0.2,8.6,0.4,13,0.7c4.3,0.3,8.6,0.9,13,1.2c8.6,0.7,17.3,0.6,25.9,0.2c8.8-0.4,17.7-1.1,26.5-2.3c8.6-1.2,17.1-3,25.5-4.8
				c7.2-1.6,14.5-3.3,21.7-4.8c3.4-0.7,6.8-1.3,10.2-2.2c1.9-0.5,3.7-1.1,5.5-1.8c1.1-0.5,2.2-0.9,3.3-1.5c0.4-0.2,0.7-0.4,1.1-0.6
				c0.3-0.2,0.5-0.4,0.8-0.6c-0.6,0.5-0.5,0.4,0.4-0.3c0.2-0.1,0.4-0.3,0.5-0.4c0.8-0.7,1.4-1.5,2.1-2.4c0.2-0.3,0.4-0.6,0.5-0.9
				c0.2-0.4,0.4-0.8,0.5-1.2c0.1-0.3,0.1-0.6,0.1-1c-0.2,0.8-0.2,0.7,0-0.4c0.1-0.3,0.1-0.7,0.1-1c0-0.1,0-0.2,0-0.3
				c0,0,0-0.1,0-0.1c0.6-2.4,0.9-4.9,1.3-7.4c0.6-4.3,0.9-8.8,1-13.1c0.1-4.5,0.1-8.8-0.4-13.3c-0.5-4.1-1.5-8-3-11.8
				c-0.8-2.2-1.8-4.2-2.9-6.3c6-1,11.9-3.2,17.5-5.6c7-3,13.7-6.9,20-11.3c11.9-8.4,22.7-18.8,29.7-32.3c3.2-6.2,5.6-12.9,7.1-19.9
				c1.6-7.8,1.8-15.6,1.8-23.6c0-9.1,0.3-18.1,0.8-27.2c0.5-9.1,1.4-18.2,1.8-27.3C316.5,250.4,315.5,233.9,313.7,217.6z
				 M223.4,161.7c-0.2,2.4-0.6,4.8-0.8,7.2c0,0.2,0,0.4-0.1,0.7c-0.8,0.1-1.6,0.2-2.3,0.2c-1.9,0-3.7-0.2-5.6-0.2
				c-0.8,0-1.2,0.6-1.3,1.3c-1.7-0.8-3.8-1.3-5.9-1.6c-0.2-0.4-0.6-0.7-1.1-0.7c-0.6,0-1.1,0.1-1.7,0.2c-0.2,0-0.3,0.1-0.5,0.1
				c-3.8-0.3-7-0.1-7-0.1s-0.1,0-0.1,0c0-0.1,0.1-0.2,0.1-0.4c0-0.6-0.5-1.1-1.1-0.9c-0.5,0.2-1,0.1-1.5,0.4
				c-0.4,0.3-0.9,0.3-1.3,0.3c-1.4,0-2.7-0.5-4-1c-3.1-1.1-6.3-1.5-9.5-2.1c-2-0.3-3.9-0.6-5.9-0.6c-2.2,0-4.4,0.3-6.6,0.4
				c-4.2,0.1-8.5,0.1-12.8,0.2c-4.2,0.1-8.3,0.4-12.4,0.9c-4.1,0.5-8.3,1.1-12.5,1.2c-8.1,0.2-16.2-1.7-24.3-0.6
				c-0.7,0.1-1.4,0.2-2.1,0.3c0.3-0.7,0.7-1.4,1-2.2c0.8-1.6,1.7-3.1,2.6-4.6c0.4-0.7,0.9-1.4,1.4-2.1c0.1-0.1,0.2-0.3,0.3-0.4
				c0,0,0.5-0.7,0.7-0.9c1.1-1.4,2.2-2.7,3.4-4c1.2-1.3,2.5-2.5,3.8-3.6c2.4,0.4,4.8,0.8,7.2,1.1c8.4,1,17,1,25.4,0.1
				c8.6-0.9,17.2-1.8,25.9-2.6c8.5-0.8,17.1,0.7,25.6,0.6c2.3,0,4.5-0.3,6.7-0.7c1,0.3,2,0.6,3,1c0.1,0,0.4,0.2,0.5,0.2
				c0.1,0.1,0.2,0.1,0.4,0.2c0.5,0.2,0.7,0.4,1.2,0.7c-0.9-0.4-0.5-0.2-0.2,0c0.1,0.1,0.4,0.4,0.5,0.4c0.2,0.2,0.4,0.5,0.7,0.8
				c0.1,0.1,0.4,0.6,0.4,0.6c0.3,0.5,0.6,1,1,1.4c2.3,3.2,5.1,4.9,8.8,5.5C223.6,159.7,223.5,160.7,223.4,161.7z"/>
			<path fill="#FFFFFF" d="M46.9,101.7c-2.7,1.3-4.4,4.3-5.8,7c-1.6,2.9-2.8,6.1-3.1,9.5c-0.2,2.1,2.8,2.1,3,0.1
				c0.3-2.9,1.6-5.7,3-8.2c1.4-2.4,3.3-4.5,4.2-7.2C48.6,102,47.6,101.4,46.9,101.7z"/>
			<path fill="#FFFFFF" d="M208.8,443.3c0,0.1-0.1,0.2-0.1,0.3c-0.2,0.7-0.1,1.5,0,2.1c0.4,1.8,2.7,2,3.6,0.6c0,0,0-0.1,0.1-0.1
				c0.2-0.3,0.4-0.5,0.6-0.8c0.3-0.7,0.5-1.2,0.6-1.9c0.1-0.6-0.3-1.4-0.7-1.8c-0.4-0.5-1-0.8-1.7-0.8
				C210,441,208.9,442,208.8,443.3z"/>
			<path fill="#FFFFFF" d="M218.5,442.5c-0.1,1.4-0.2,2.8-0.1,4.2c0.1,2.5,3.4,2.6,3.7,0.1c0.1-1.4,0.1-2.8,0.1-4.2
				C222.1,440.2,218.6,440.1,218.5,442.5z"/>
			<path fill="#FFFFFF" d="M70,107.6c-0.4,0.3-0.7,0.7-1,1.2c-0.2,0.4-0.7,0.7-1,1.1c-0.6,0.5-0.6,1.5,0,2.1c0.5,0.6,1.4,0.6,2,0
				c0.5-0.5,0.9-1,1.3-1.6c0.5-0.7,0.7-1.5,0.4-2.3C71.3,107.6,70.5,107.3,70,107.6z"/>
			<path fill="#FFFFFF" d="M71.5,401c-10.4,0-20.2-3-28.6-8.1c-0.7,2.8-1.4,5.6-2,8.4c-0.5,2.2-1.3,4.2-2.2,6.2
				c-1.2,2.8-2.3,5.8-2.8,8.8c0,0.3-0.1,0.6-0.1,1c-0.6,1.3-0.7,2.2,0.3,3.8l0,0c0.4,1.5,1.4,2.7,3.1,3.2c0.1,0,0.1,0,0.2,0
				c2.2,1.5,5,2.6,7.9,3.5c0,0,0.1,0.1,0.1,0.1c0.2,0.2,0.5,0.3,0.8,0.4c0.4,0.2,0.7,0.1,1,0c5.8,1.5,11.2,1.9,11.2,1.9l0,0
				c1.5,1.3,3,1.7,4.8,2.1c2,0.5,4,0.9,6,1.2c2.9,0.5,5.8,0.8,8.7,1.3c0,0,0.1,0,0.1,0c1,0.2,1.9,0.4,2.9,0.6
				c3.9,1,7.9,1.4,11.9,1.7c5.6,0.7,11.2,1.2,16.6,1.5c3.1,0.5,6.2,1,9.4,0.9c2.5,0,5.1-0.2,7.6-0.5c4.4,0,8.7-0.1,12.9-0.3
				c1.5,0.1,2.9,0.2,4.4,0.3c4.1,0.2,8.3,0.2,12.4-0.1c5.4-0.3,10.7-1.1,16-2.1c2.6-0.5,5.1-1.2,7.7-2c0.9-0.3,1.8-0.6,2.6-0.9
				c8.4-1.5,15.2-3.1,19.9-4.4c0,0,0.1,0,0.1,0c0.7-0.1,1.3-0.3,1.9-0.6c0.7-0.2,1.3-0.4,1.9-0.6c0,0,0,0,0,0c0.4,0,0.6-0.2,0.9-0.3
				c12.7-4.6,11.2-15.2,9.4-27.7c-2.4,0.3-4.9,0.6-7.5,0.6H71.5z"/>
			<path fill="#FFFFFF" d="M66.5,193.9c2.8-6.3,6.8-12.1,10.2-18c3.5-6.1,6.6-12.4,9.5-18.8c0.4-0.9-0.7-1.6-1.2-0.8
				c-3.4,6.1-7.2,12-10.7,18c-3.5,6.1-7.4,12.1-10.4,18.5c-0.5,1.1-1,2.2-1.5,3.4c1.1-0.2,2.2-0.4,3.3-0.5
				C66,195,66.3,194.5,66.5,193.9z"/>
			<path fill="#FFFFFF" d="M59.6,108c-0.9-0.3-1.6,0.4-2.2,1c-0.7,0.6-0.7,1.8-0.1,2.5c0.6,0.7,1.7,0.8,2.4,0.1
				c0.1-0.1,0.2-0.2,0.3-0.3c0.2-0.3,0.4-0.5,0.5-0.9c0.1-0.4,0.2-0.7,0.1-1.1c0.1-0.3,0.1-0.6-0.2-0.9C60.3,108,60,108,59.6,108z"
				/>
			<path fill="#FFFFFF" d="M152.3,45.2c0.2-1.7-0.7-3-1.4-4.4c-0.8-1.5-1.7-2.9-2.7-4.2c-1.3-1.8-3.7,0.7-2.4,2.4
				c0.9,1.2,1.7,2.6,2.4,3.9c0.7,1.2,1.4,2.7,2.9,3C151.6,45.9,152.2,45.8,152.3,45.2z"/>
			<path fill="#FFFFFF" d="M114.8,132.7c-1.6,0.1-1.7,2.6-0.1,2.6c2.4,0,4.6,0.8,6.8,1.8c2.1,1,4.1,2.5,6.4,2.6
				c0.6,0,1.2-0.8,0.8-1.4c-1.4-2.1-3.8-3.1-6-4C120.3,133.3,117.5,132.6,114.8,132.7z"/>
			<path fill="#FFFFFF" d="M126.1,130.7c-1.6-0.3-2.3,2.2-0.7,2.6c1.8,0.4,3.6,0.9,5.3,1.5c1.6,0.6,3.3,1.7,5.1,1.6
				c0.5,0,0.9-0.6,0.6-1.1c-0.9-1.8-2.9-2.3-4.5-3C130,131.6,128.1,131.1,126.1,130.7z"/>
			<path fill="#FFFFFF" d="M105.7,57.2c0.6-0.7,0.6-1.5,0-2.2c-0.5-0.6-1.3-0.6-2-0.6c-0.9-0.1-1.6,0.8-1.7,1.7
				c0,0.9,0.7,1.8,1.6,1.8C104.4,57.7,105.2,57.7,105.7,57.2z"/>
			<path fill="#FFFFFF" d="M157.9,46.1c0.8,0,1.3-0.7,1.1-1.5c-0.2-0.8-0.8-1.3-1.3-1.9c-0.5-0.5-1-1-1.5-1.6
				c-1.2-1.3-3.1,0.6-1.9,2c0.5,0.5,1,1.1,1.5,1.6C156.3,45.4,156.9,46.1,157.9,46.1z"/>
			<path fill="#FFFFFF" d="M134,127.3c-1.4-0.9-2.8,1.4-1.4,2.3c0.9,0.5,1.8,1,2.7,1.4c0.8,0.3,1.8,0.8,2.6,0.3
				c0.3-0.2,0.5-0.5,0.4-0.9c-0.1-0.3-0.2-0.6-0.4-0.8c0.1,0,0.1,0.1,0.2,0.1c0.6,0.1,1.1,0.2,1.7,0.3c0.6,0.1,1.2,0.1,1.8-0.3
				c0.7-0.5,0.9-1.2,0.6-2.1c-0.5-1.2-2-1.2-2.9-1.7c-0.9-0.4-2,0.4-2.3,1.3c-0.2,0.6,0,1.4,0.4,1.9c-0.2-0.1-0.5-0.2-0.7-0.3
				C135.7,128.3,134.8,127.9,134,127.3z"/>
			<path fill="#FFFFFF" d="M256.8,387c0.8,1.6,3.3,0.6,2.8-1.2c-0.5-1.8-1.9-3.1-2.5-4.8c-0.6-1.9-3.5-1.2-2.9,0.8
				C254.8,383.6,256,385.2,256.8,387z"/>
			<path fill="#FFFFFF" d="M218.5,133.9C218.5,133.9,218.5,133.9,218.5,133.9C218.5,133.9,218.6,133.9,218.5,133.9
				c0.2,0.1,0.4,0.1,0.5,0.2c0,0,0.1,0,0.1,0c0,0,0.1,0,0.1,0.1c0.5,0.3,0.9,0.6,1.5,0.4c0.5-0.2,0.9-0.5,1-1
				c0.3-1.1-0.6-1.9-1.3-2.5c-0.6-0.5-1.4-0.7-2.1-0.8c-0.9-0.1-1.7,0.9-1.7,1.8c0,0.9,0.7,1.9,1.7,1.8
				C218.3,133.9,218.4,133.9,218.5,133.9z"/>
			<path fill="#FFFFFF" d="M210.9,131.1c-0.7-1.7-3.5-0.5-2.9,1.2c0.7,1.8,1.7,3.4,2.9,4.8c1.4,1.6,3.2,3.3,5.1,3.9
				c1.5,0.5,2.8-1.6,1.6-2.8c-1.2-1.2-2.8-2.1-4-3.3C212.5,133.9,211.5,132.6,210.9,131.1z"/>
			<path fill="#FFFFFF" d="M204.3,65.7c1.2-1.2,2.4-2.6,3.3-4.1c0.9-1.5,1.5-3.2,2.3-4.8c0.5-1-0.6-1.9-1.4-1.2
				c-1.3,1.2-2.6,2.2-3.8,3.6c-1.3,1.4-2.4,2.9-3.8,4.3c-2.5,2.4-5.4,4.2-7.8,6.7c-2.2,2.4-4.1,5.1-5.1,8.3c-1,3.1-1.5,7.5,1.1,9.8
				c0.4,0.4,1.3,0.1,1.5-0.4c0.7-1.5,0.6-2.8,0.6-4.5c0-1.5,0.3-3,0.8-4.4c1-2.7,2.9-5,4.9-6.9C199.3,69.7,202,68,204.3,65.7z"/>
			<path fill="#FFFFFF" d="M189.1,90.7c-0.7,0.7-0.8,2.1-0.1,2.9c0.1,0.1,0.1,0.1,0.2,0.2c0,0,0.1,0.1,0.1,0.1
				c0.1,0.2,0.2,0.3,0.3,0.4c0.2,0.2,0.3,0.3,0.5,0.4c0.4,0.3,0.8,0.5,1.3,0.3c0.5-0.1,0.9-0.6,1.1-1.1c0-0.1,0-0.2,0.1-0.3
				c0.4-1-0.2-2.1-0.8-2.9C191.2,89.9,189.8,90,189.1,90.7z"/>
			<path fill="#FFFFFF" d="M163.9,46.9c0,0,0.1,0,0.1,0c0.8-0.1,1.3-1.2,1.1-2c0,0,0,0,0,0c0-1.1-0.9-1.9-1.6-2.6
				c-1-0.9-2.3-1.1-3.3-0.1c-1.1,1.1-1,3.2,0.4,4C161.5,46.7,162.8,47.3,163.9,46.9z"/>
			<path fill="#FFFFFF" d="M248.1,386.5c0,0.1,0.1,0.2,0.1,0.2c0.6,1.9,1.1,3.9,2,5.6c0.9,1.7,3.4,0.6,3-1.2
				c-0.4-1.9-1.2-3.8-1.9-5.6c-0.2-0.5-0.4-0.9-0.6-1.4C249.8,384.9,248.9,385.7,248.1,386.5z"/>
			<path fill="#FFFFFF" d="M281,196.5c0.2-0.8,0.2-1.5,0.3-2.3c0-1-0.7-1.8-1.6-1.8c-0.9,0-1.7,0.8-1.7,1.7c0,0.8,0,1.6,0.2,2.3
				C278.4,197.9,280.5,198,281,196.5z"/>
			<path fill="#FFFFFF" d="M287.5,363.6c0.9,0,0.9-1.5,0-1.5C286.6,362.1,286.6,363.6,287.5,363.6z"/>
			<path fill="#FFFFFF" d="M282,370.6c0.2-0.3,0.3-0.7,0-1c-0.7-0.9-1.9-0.9-2.8-1.5c-0.7-0.5-1.7-0.2-2.1,0.5
				c-0.5,0.9-0.1,2.1,0.9,2.4C279.1,371.5,281,371.8,282,370.6z"/>
			<polygon fill="#FFFFFF" points="270.9,196.8 270.9,196.8 270.9,196.8 270.9,196.8 			"/>
			<path fill="#FFFFFF" d="M271,194.3c-1.5,0-1.5,2.1-0.2,2.5c0,0.1,0.1,0.2,0.1,0c0,0,0,0,0,0c0,0,0,0,0,0c0,0,0,0,0,0c0,0,0,0,0,0
				c0,0,0,0,0,0c0,0,0,0,0,0c0,0,0,0,0,0c0,0.2,0,0.5,0.1,0.7c0,0.3,0.1,0.6,0.1,1c0,0.6,0.3,1.1,0.7,1.5c0.4,0.4,1.1,0.5,1.5,0
				c0.5-0.5,0.8-1,0.8-1.7c0-0.6,0-1.2-0.1-1.8c-0.1-1-0.9-1.9-1.8-2c0,0,0.1,0,0.1,0C271.8,194.4,271.5,194.3,271,194.3z"/>
			<path fill="#FFFFFF" d="M242.4,395.1c0.3,1.2,0.7,3.3,2.3,3.4c1.3,0,1.5-1.9,1.3-2.8c-0.2-1.5-0.9-3-1.4-4.5
				c-0.2-0.4-0.4-0.9-0.5-1.3c-0.9,0.7-1.7,1.3-2.6,1.9C241.8,392.8,242.1,393.9,242.4,395.1z"/>
			<path fill="#FFFFFF" d="M265.4,378.4C265.4,378.4,265.4,378.4,265.4,378.4c-0.1-0.8-0.8-1.5-1.6-1.5c-0.8,0-1.7,0.7-1.7,1.7
				c0,0.5,0.1,0.7,0.3,1.2c0.1,0.3,0.3,0.5,0.4,0.7c0.5,0.7,1.4,1,2.2,0.6c0.4-0.1,0.8-0.6,0.9-1c0.1-0.3,0.1-0.7-0.1-1
				c0-0.1-0.1-0.2-0.1-0.3C265.6,378.7,265.5,378.6,265.4,378.4z"/>
			<path fill="#FFFFFF" d="M265.2,200c0.1-1.5-0.4-3.1-0.6-4.5c-0.3-1.7-0.9-3.3-1.2-4.9c-0.3-1.6-2.8-1.3-2.7,0.3
				c0.1,1.5,0.2,3,0.2,4.6c0,1.6,0.1,3.6,0.7,5C262.3,202.4,265,202.3,265.2,200z"/>
			<path fill="#FFFFFF" d="M268.2,377.3c0-0.1-0.1-0.1-0.1-0.2c0,0,0,0,0-0.1c0-0.6-0.4-1-1-1.1c-0.6,0-1.1,0.5-1.1,1.1
				c0,0.6,0.2,1,0.5,1.4c0.3,0.4,1,0.8,1.5,0.6c0.6-0.2,0.8-0.8,0.6-1.4C268.4,377.5,268.3,377.4,268.2,377.3
				C268.2,377.3,268.2,377.3,268.2,377.3z"/>
			<path fill="#FFFFFF" d="M276.7,371c-0.8,0-0.8,1.3,0,1.3c0.3,0,0.7,0,1,0c0.4,0,0.7,0,0.9-0.3c0.2-0.2,0.2-0.5,0-0.7
				c-0.3-0.3-0.6-0.3-0.9-0.3C277.4,371,277,371,276.7,371z"/>
		</g>
	</g>
	<g>
		<path fill="#FFFFFF" d="M69.5,312.2c-0.4-0.5-1-0.9-1.6-1.2c-0.6-0.3-1.3-0.5-2-0.5H53.1v11.4h12.4c0.8,0,1.5-0.1,2.2-0.4
			c0.7-0.3,1.2-0.7,1.7-1.2c0.5-0.5,0.9-1.1,1.2-1.8c0.3-0.7,0.4-1.4,0.4-2.2c0-0.8-0.1-1.5-0.4-2.2C70.3,313.4,70,312.8,69.5,312.2
			z"/>
		<path fill="#FFFFFF" d="M67.8,302.5c1-1,1.5-2.3,1.5-4c0-1.7-0.5-3-1.4-3.9c-0.9-1-2-1.5-3.4-1.5H53.1v10.9h11.2
			C65.6,303.9,66.9,303.4,67.8,302.5z"/>
		<path fill="#FFFFFF" d="M59.2,264.4c1.1-0.5,2-1.2,2.7-2.1c0.7-0.9,1.3-1.9,1.7-3.1c0.4-1.2,0.6-2.5,0.6-3.9
			c0-1.4-0.2-2.7-0.6-3.9c-0.4-1.2-1-2.2-1.7-3.1c-0.7-0.9-1.7-1.5-2.8-2c-1.1-0.5-2.3-0.7-3.7-0.7h-5v19.5h5
			C56.8,265.1,58.1,264.9,59.2,264.4z"/>
		<path fill="#FFFFFF" d="M100.6,254.8c0.5-0.2,0.9-0.6,1.2-1c0.3-0.4,0.6-0.9,0.8-1.5c0.2-0.6,0.3-1.2,0.3-1.9
			c0-0.7-0.1-1.3-0.3-1.9c-0.2-0.6-0.5-1.1-0.9-1.5c-0.4-0.4-0.8-0.8-1.3-1c-0.5-0.2-1-0.4-1.5-0.4h-7v9.6h7.2
			C99.6,255.2,100.1,255.1,100.6,254.8z"/>
		<path fill="#FFFFFF" d="M207,295.2c-0.5-0.6-1.2-1.1-1.9-1.5c-0.7-0.3-1.4-0.5-2.2-0.5h-10.1v14h10.5c0.8,0,1.5-0.2,2.2-0.5
			c0.7-0.4,1.2-0.9,1.7-1.5c0.5-0.6,0.9-1.4,1.2-2.2c0.3-0.9,0.4-1.8,0.4-2.7c0-1-0.2-1.9-0.5-2.8C208,296.6,207.6,295.8,207,295.2z
			"/>
		<path fill="#FFFFFF" d="M223.7,227.2H40.3c-4.1,0-7.3,3.3-7.3,7.3v97.2c0,4.1,3.3,7.3,7.3,7.3h183.3c4.1,0,7.3-3.3,7.3-7.3v-97.2
			C231,230.5,227.7,227.2,223.7,227.2z M192.4,240.6h5.7v14l12.4-14.1h6.3l-11.3,13.1l12,16.4h-6.5l-9.2-12.8l-3.8,4v8.8h-5.7V240.6
			z M44.7,240.6h10.7c2.4,0,4.5,0.4,6.3,1.2c1.8,0.8,3.3,1.8,4.6,3.2c1.2,1.3,2.1,2.9,2.7,4.7c0.6,1.8,0.9,3.7,0.9,5.7
			c0,2.2-0.3,4.3-1,6.1c-0.7,1.8-1.7,3.4-2.9,4.7c-1.3,1.3-2.8,2.3-4.6,3c-1.8,0.7-3.8,1.1-6,1.1H44.7V240.6z M78.3,322.7
			c-0.7,1.4-1.7,2.5-3,3.5c-1.3,0.9-2.8,1.6-4.4,2.1c-1.7,0.5-3.5,0.7-5.4,0.7H44.7v-43.1h23.1c1.5,0,2.9,0.3,4.1,1
			c1.2,0.6,2.2,1.5,3.1,2.5c0.9,1,1.5,2.2,2,3.5c0.5,1.3,0.7,2.6,0.7,4c0,2.1-0.5,4.1-1.6,5.9c-1.1,1.8-2.6,3.2-4.6,4.1
			c2.5,0.7,4.4,2,5.9,3.9c1.4,1.9,2.2,4.2,2.2,7.1C79.4,319.7,79,321.3,78.3,322.7z M91.9,270.1h-5.7v-29.6h13.1
			c1.4,0,2.6,0.3,3.8,0.9c1.2,0.6,2.1,1.3,3,2.2c0.8,0.9,1.5,2,2,3.2c0.5,1.2,0.7,2.4,0.7,3.6c0,1.9-0.5,3.7-1.4,5.2
			c-1,1.6-2.3,2.7-3.9,3.4l6.7,11.1h-6.5l-6-9.9h-5.7V270.1z M124.4,329H94.5v-43.1h29.4v7.3h-21v10.4H121v6.8h-18.2v11.2h21.6V329z
			 M131.2,270.1h-5.7v-29.6h5.7V270.1z M169.4,329h-29.9v-43.1h29.4v7.3h-21v10.4H166v6.8h-18.2v11.2h21.6V329z M174.6,270.1H170
			l-15.2-18.9v18.9H149v-29.6h4.5l15.4,19.4v-19.4h5.7V270.1z M209.9,329l-8.8-14.5h-8.3V329h-8.4v-43.1h19.1c2,0,3.8,0.4,5.5,1.2
			c1.7,0.8,3.1,1.9,4.3,3.3c1.2,1.4,2.2,2.9,2.9,4.6c0.7,1.7,1,3.5,1,5.2c0,2.8-0.7,5.3-2.1,7.6c-1.4,2.3-3.3,3.9-5.7,4.9l9.8,16.2
			H209.9z"/>
	</g>
	<g>
		<path fill="#FFFFFF" d="M37.1,369.4c-1.2-0.5-2.1-1.1-2.8-1.8l0.6-1c0.6,0.7,1.5,1.2,2.6,1.6c1.1,0.4,2.2,0.6,3.4,0.6
			c1.7,0,3-0.3,3.9-1c0.9-0.7,1.3-1.5,1.3-2.6c0-0.8-0.2-1.5-0.7-1.9c-0.5-0.5-1-0.9-1.7-1.1c-0.7-0.3-1.6-0.5-2.8-0.8
			c-1.3-0.3-2.4-0.6-3.2-1c-0.8-0.3-1.5-0.8-2.1-1.4c-0.6-0.6-0.8-1.5-0.8-2.6c0-0.9,0.2-1.7,0.7-2.4c0.5-0.7,1.2-1.3,2.1-1.8
			c1-0.4,2.2-0.6,3.6-0.6c1,0,2,0.1,3,0.4c1,0.3,1.8,0.7,2.5,1.2l-0.5,1.1c-0.7-0.5-1.5-0.9-2.4-1.1c-0.9-0.3-1.7-0.4-2.6-0.4
			c-1.7,0-3,0.3-3.8,1c-0.9,0.7-1.3,1.5-1.3,2.6c0,0.8,0.2,1.5,0.7,1.9c0.5,0.5,1,0.9,1.7,1.1c0.7,0.3,1.6,0.5,2.8,0.8
			c1.3,0.3,2.4,0.6,3.2,1c0.8,0.3,1.5,0.8,2,1.4c0.6,0.6,0.8,1.5,0.8,2.6c0,0.9-0.2,1.7-0.7,2.4c-0.5,0.7-1.2,1.3-2.2,1.7
			c-1,0.4-2.2,0.6-3.6,0.6C39.6,370.1,38.3,369.9,37.1,369.4z"/>
		<path fill="#FFFFFF" d="M66.3,364.8H55.8l-2.3,5.1H52l8.4-18.2h1.3l8.4,18.2h-1.4L66.3,364.8z M65.8,363.7l-4.8-10.5l-4.7,10.5
			H65.8z"/>
		<path fill="#FFFFFF" d="M90.1,351.8L82,370h-1.3l-8.1-18.2H74l7.3,16.5l7.3-16.5H90.1z"/>
		<path fill="#FFFFFF" d="M108.7,368.8v1.2H96.1v-18.2h12.1v1.2H97.4v7.2h9.7v1.2h-9.7v7.4H108.7z"/>
		<path fill="#FFFFFF" d="M150.7,351.8l-6.2,18.2h-1.4l-5.6-16.3l-5.7,16.3h-1.4l-6.2-18.2h1.4l5.5,16.4l5.7-16.4h1.3l5.7,16.4
			l5.6-16.4H150.7z"/>
		<path fill="#FFFFFF" d="M168.3,364.8h-10.5l-2.3,5.1H154l8.4-18.2h1.3l8.4,18.2h-1.4L168.3,364.8z M167.8,363.7l-4.8-10.5
			l-4.7,10.5H167.8z"/>
		<path fill="#FFFFFF" d="M181,353h-6.5v-1.2h14.4v1.2h-6.5v17H181V353z"/>
		<path fill="#FFFFFF" d="M207.8,368.8v1.2h-12.5v-18.2h12.1v1.2h-10.8v7.2h9.7v1.2h-9.7v7.4H207.8z"/>
		<path fill="#FFFFFF" d="M228.4,370l-4.3-6.1c-0.6,0.1-1.2,0.1-1.8,0.1h-5.2v5.9h-1.3v-18.2h6.5c2.3,0,4.1,0.5,5.4,1.6
			c1.3,1.1,1.9,2.6,1.9,4.5c0,1.4-0.4,2.6-1.1,3.6c-0.7,1-1.8,1.7-3.2,2.1l4.5,6.4H228.4z M222.3,362.8c1.9,0,3.4-0.4,4.4-1.3
			c1-0.9,1.5-2.1,1.5-3.6c0-1.6-0.5-2.8-1.5-3.6c-1-0.9-2.5-1.3-4.4-1.3h-5.2v9.9H222.3z"/>
	</g>
</g>
</svg>
